<?xml version="1.0" encoding="UTF-8"?>
<svg version="1.1" xmlns="http://www.w3.org/2000/svg" width="512" height="512">
<path d="M0 0 C27.28161701 -0.83461926 50.07522221 10.82158181 73.41601562 23.44189453 C92.4262375 33.71234237 109.48157115 41.32057611 131.36328125 36.21484375 C146.13835141 31.76317574 157.17935231 21.51712009 166.1640625 9.31640625 C170.1650053 4.48946236 174.50077157 1.59256893 180.7421875 0.75390625 C188.92346162 0.56821645 195.51495394 2.00931815 201.67578125 7.6875 C205.90979904 12.52637748 206.47693636 16.96534151 206.36328125 23.17578125 C204.56179119 37.05460771 187.70853804 51.37989404 177.21875 59.69921875 C156.36209223 75.59686332 130.93027633 84.13736683 104.62792969 80.82910156 C99.70764661 80.09844661 94.84671349 79.15143195 89.98046875 78.125 C88.31397031 77.79082666 86.64738297 77.45709316 84.98046875 77.125 C84.58674072 78.17506226 84.58674072 78.17506226 84.18505859 79.24633789 C82.88163278 82.36119272 81.34867396 85.23285319 79.70703125 88.18359375 C79.22717522 89.0493679 79.22717522 89.0493679 78.73762512 89.93263245 C78.05193084 91.1690919 77.36492697 92.40482585 76.67672729 93.63989258 C75.22660847 96.24244752 73.78291465 98.84854583 72.33891296 101.45449829 C71.60689887 102.77545401 70.87456776 104.09623411 70.141922 105.4168396 C65.45789199 113.86227269 60.84027818 122.34365939 56.23193359 130.83056641 C55.05977677 132.9795968 53.87612938 135.12176678 52.6875 137.26171875 C52.35113525 137.87208984 52.01477051 138.48246094 51.66821289 139.11132812 C50.8125669 140.66356486 49.95149099 142.21280527 49.08984375 143.76171875 C47.76800267 146.14249412 47.76800267 146.14249412 47.98046875 149.125 C49.21796875 149.79982422 49.21796875 149.79982422 50.48046875 150.48828125 C65.88017227 159.01303641 80.12202735 169.3000347 93.98046875 180.125 C94.92921875 180.86105469 95.87796875 181.59710938 96.85546875 182.35546875 C119.53199477 201.24076307 134.86346727 240.77399555 143.98046875 268.125 C144.51831646 274.47160297 143.69309902 278.87086827 139.98046875 284.125 C135.64214873 288.7717314 131.33927632 291.75935766 124.89453125 292.4609375 C117.99701381 292.54285576 113.47658217 292.45172758 107.98046875 288.125 C105.07268737 284.79706811 103.01977906 281.52612131 101.1328125 277.5390625 C100.61533447 276.45431641 100.09785645 275.36957031 99.56469727 274.25195312 C98.74956665 272.51848633 98.74956665 272.51848633 97.91796875 270.75 C97.34433664 269.54330201 96.77002757 268.33692561 96.19506836 267.13085938 C94.44967056 263.46562446 92.71491362 259.79543084 90.98046875 256.125 C89.46740719 252.93158965 87.95254405 249.73906965 86.43383789 246.54833984 C85.53896268 244.667484 84.64726263 242.78511244 83.75952148 240.90087891 C79.56281978 232.06268277 75.43385677 223.52741567 68.98046875 216.125 C68.98046875 215.465 68.98046875 214.805 68.98046875 214.125 C68.10128784 213.7074646 68.10128784 213.7074646 67.2043457 213.28149414 C65.11171607 212.19325322 63.30064988 211.00987598 61.3984375 209.62109375 C60.72159912 209.13229736 60.04476074 208.64350098 59.34741211 208.13989258 C58.6281958 207.61935303 57.90897949 207.09881348 57.16796875 206.5625 C49.93538333 201.39813546 42.57440549 196.64133658 34.87060547 192.21484375 C32.91029919 191.08454057 30.96310862 189.93348341 29.015625 188.78125 C20.28619716 183.67860732 11.47255615 179.60270444 1.98046875 176.125 C1.60462646 176.52702637 1.22878418 176.92905273 0.84155273 177.34326172 C-15.26895685 194.41577453 -32.99238116 206.36138355 -56.01953125 212.125 C-56.71361084 212.30087646 -57.40769043 212.47675293 -58.12280273 212.65795898 C-76.37629827 216.83719158 -97.5098496 215.64804787 -115.01953125 209.125 C-115.68388184 208.88442871 -116.34823242 208.64385742 -117.03271484 208.39599609 C-127.24044993 204.61845005 -135.5363297 199.96572938 -142.01953125 191.125 C-144.18392749 184.63181128 -143.83416349 178.04624925 -141.01953125 171.8125 C-137.81452025 166.06179455 -133.26545291 162.20697389 -127.01953125 160.125 C-117.69876464 158.76475545 -111.04756704 161.41200672 -102.87890625 165.3984375 C-91.56792142 170.73028735 -77.94560372 170.97332053 -66.14453125 167.0625 C-55.05050781 162.87142448 -46.42452891 156.38944586 -38.01953125 148.125 C-37.33117187 147.44953125 -36.6428125 146.7740625 -35.93359375 146.078125 C-24.7843138 134.35595715 -18.02399772 118.57102875 -10.82385254 104.27322388 C-8.19324761 99.05080269 -5.54457257 93.83757935 -2.89453125 88.625 C-2.12426605 87.10925133 -2.12426605 87.10925133 -1.33843994 85.56288147 C3.47291665 76.11666895 8.46593888 66.78433596 13.58984375 57.50390625 C15.83717115 53.43174186 17.92929847 49.29922738 19.98046875 45.125 C1.16387563 42.48595672 -15.27736568 43.37855229 -31.01953125 55.125 C-37.2078385 59.94493568 -42.09429987 65.40710747 -46.87890625 71.609375 C-51.85593934 77.4582971 -56.93884588 80.48446006 -64.5234375 81.14453125 C-72.04131935 81.08570588 -78.02314267 78.24626713 -83.38671875 73.078125 C-87.02483417 68.7263123 -87.99152837 64.86117887 -88.08203125 59.25 C-85.78069274 46.95222236 -74.47697726 37.50303337 -66.01953125 29.125 C-64.84777344 27.95710938 -64.84777344 27.95710938 -63.65234375 26.765625 C-46.1773986 10.10726607 -24.00617202 1.48587525 0 0 Z " fill="#000000" transform="translate(306.01953125,139.875)"/>
<path d="M0 0 C7.18709051 6.4403798 13.23367961 15.0320133 14.328125 24.89282227 C14.81130476 34.13051123 14.86822763 42.69240689 10.10546875 50.88671875 C9.45191406 52.05074219 9.45191406 52.05074219 8.78515625 53.23828125 C3.34778003 62.12230033 -4.39251053 68.55580566 -14.20703125 72.07421875 C-28.12057376 75.13991456 -39.60850699 73.34035901 -51.89453125 65.88671875 C-60.86941373 59.21815702 -66.33036262 49.81928821 -68.49609375 38.8359375 C-69.93213071 25.96169919 -66.63959557 14.6648277 -58.9296875 4.2265625 C-51.66304493 -4.12798434 -41.88913678 -8.37203071 -31.08203125 -9.9296875 C-19.35374528 -10.60521377 -8.98372805 -7.37562527 0 0 Z " fill="#000000" transform="translate(431.89453125,89.11328125)"/>
<path d="M0 0 C0.67438158 -0.00623996 1.34876315 -0.01247993 2.04358053 -0.01890898 C4.30239969 -0.03485881 6.56014265 -0.02222811 8.81896973 -0.00964355 C10.43867116 -0.01506383 12.05836766 -0.02218597 13.67805481 -0.03088379 C18.07682934 -0.04913144 22.47522894 -0.04204377 26.87401009 -0.02936745 C31.47526187 -0.01924721 36.07648134 -0.02863041 40.67773438 -0.03491211 C48.4050473 -0.04219137 56.13220735 -0.03259353 63.85949707 -0.0135498 C72.7959873 0.0082195 81.7321125 0.00116833 90.66859388 -0.02085543 C98.33834443 -0.03900152 106.00798503 -0.04157163 113.67775011 -0.03110075 C118.25985225 -0.02486145 122.84178276 -0.02404213 127.4238739 -0.0372467 C131.73154492 -0.04879312 136.03874489 -0.04080187 140.34636497 -0.01766968 C141.92821152 -0.01237608 143.51009763 -0.01390751 145.09192848 -0.02272034 C147.24972948 -0.03363459 149.40601648 -0.01996495 151.5637207 0 C152.771605 0.0015081 153.97948929 0.0030162 155.22397614 0.00457001 C158.88822853 0.60775007 160.04318319 1.60401789 162.28186035 4.50793457 C163.36418716 7.52298783 163.38955722 9.08693772 162.59436035 12.19543457 C161.01991847 14.96945121 160.23656406 15.40318176 157.28186035 16.50793457 C154.25800419 16.76520348 154.25800419 16.76520348 150.64637756 16.77536011 C149.98086866 16.77989122 149.31535975 16.78442233 148.62968391 16.78909075 C146.40112318 16.80174453 144.17280653 16.8001138 141.94421387 16.79846191 C140.34584234 16.8044465 138.74747371 16.81125189 137.14910889 16.81881714 C132.80822393 16.83648992 128.46741782 16.84117301 124.12650037 16.84244871 C120.50315388 16.84434776 116.87982577 16.85170524 113.25648636 16.8587929 C104.70886392 16.87507876 96.16128362 16.87996162 87.61364746 16.87854004 C78.7942153 16.87733803 69.97502763 16.89845111 61.15565735 16.93002737 C53.58442424 16.95616958 46.01327109 16.96690822 38.44199318 16.96562922 C33.91963637 16.96511905 29.39749689 16.97083281 24.87518501 16.99198532 C20.62254 17.0113336 16.37032044 17.01151578 12.11766052 16.99695206 C10.55718299 16.99485871 8.99667907 16.99959616 7.43624687 17.01167297 C5.30510548 17.0270982 3.1754362 17.01783773 1.04432678 17.00241089 C-0.74399394 17.00404519 -0.74399394 17.00404519 -2.56844234 17.00571251 C-6.3518056 16.40779005 -8.02061917 15.17670746 -10.71813965 12.50793457 C-11.3470459 10.50793457 -11.3470459 10.50793457 -11.28063965 8.50793457 C-11.28192871 7.84793457 -11.28321777 7.18793457 -11.2845459 6.50793457 C-9.63218476 0.67339043 -5.44501678 0.00679837 0 0 Z " fill="#000000" transform="translate(19.7181396484375,172.4920654296875)"/>
<path d="M0 0 C0.65240382 -0.00297112 1.30480765 -0.00594224 1.97698128 -0.0090034 C4.16713173 -0.01768786 6.35722749 -0.01919842 8.5473938 -0.02069092 C10.11605954 -0.02531923 11.68472415 -0.03034391 13.25338745 -0.03573608 C17.5178719 -0.04885984 21.78234061 -0.05530486 26.0468421 -0.05974674 C28.7104714 -0.06267719 31.3740964 -0.06678192 34.03772354 -0.07125092 C42.36979429 -0.08492508 50.70185519 -0.09459243 59.03393638 -0.09845281 C68.65568439 -0.1029351 78.27729044 -0.12049124 87.89899528 -0.1494534 C95.3343195 -0.17105847 102.76960375 -0.18115644 110.20495903 -0.18249393 C114.64681524 -0.18354269 119.08853799 -0.18946584 123.53036118 -0.20731354 C127.70823656 -0.2237742 131.88587788 -0.22595955 136.06377411 -0.21717453 C137.59683737 -0.21640311 139.12991312 -0.22076076 140.66294479 -0.23063278 C142.75669577 -0.24332457 144.84961424 -0.23749147 146.94335938 -0.22705078 C148.11474897 -0.22851734 149.28613857 -0.2299839 150.49302483 -0.2314949 C153.97236534 0.18519711 155.81520967 1.0430876 158.59866333 3.14044189 C160.59866333 6.14044189 160.59866333 6.14044189 160.41116333 9.64044189 C159.3494862 14.21382031 159.3494862 14.21382031 156.59866333 16.14044189 C153.64820957 16.52075863 153.64820957 16.52075863 149.96281433 16.52812195 C149.28520363 16.53350749 148.60759292 16.53889302 147.90944856 16.54444176 C145.63387631 16.55877456 143.35888142 16.55160487 141.08328247 16.54449463 C139.45387808 16.55019545 137.82447768 16.55715859 136.19508362 16.56529236 C131.76532456 16.58327111 127.33576307 16.58204653 122.90597844 16.57634997 C119.21050725 16.57326482 115.51507438 16.57934307 111.81960863 16.58538872 C103.10278014 16.59944792 94.38604963 16.59786117 85.66921997 16.58648682 C76.67084675 16.57500468 67.67277153 16.58907965 58.67443758 16.61588329 C50.95376262 16.63802167 43.23318132 16.64468187 35.51247686 16.63880688 C30.89904901 16.63543156 26.28581219 16.63789032 21.67241096 16.65505791 C17.33440517 16.67049534 12.99684165 16.66660741 8.65885353 16.64775276 C7.06571285 16.64405792 5.47253964 16.64720138 3.87942886 16.65763855 C1.7062709 16.67079007 -0.46541023 16.65935535 -2.63850403 16.64164734 C-3.85506148 16.64143806 -5.07161894 16.64122877 -6.32504177 16.64101315 C-10.01782651 16.04012736 -11.20569134 15.12619937 -13.40133667 12.14044189 C-13.90133667 8.64044189 -13.90133667 8.64044189 -13.40133667 5.14044189 C-9.62905807 0.19745614 -5.92411075 0.01505356 0 0 Z " fill="#000000" transform="translate(163.40133666992188,98.85955810546875)"/>
<path d="M0 0 C0.67438158 -0.00623996 1.34876315 -0.01247993 2.04358053 -0.01890898 C4.30239969 -0.03485881 6.56014265 -0.02222811 8.81896973 -0.00964355 C10.43867116 -0.01506383 12.05836766 -0.02218597 13.67805481 -0.03088379 C18.07682934 -0.04913144 22.47522894 -0.04204377 26.87401009 -0.02936745 C31.47526187 -0.01924721 36.07648134 -0.02863041 40.67773438 -0.03491211 C48.4050473 -0.04219137 56.13220735 -0.03259353 63.85949707 -0.0135498 C72.7959873 0.0082195 81.7321125 0.00116833 90.66859388 -0.02085543 C98.33834443 -0.03900152 106.00798503 -0.04157163 113.67775011 -0.03110075 C118.25985225 -0.02486145 122.84178276 -0.02404213 127.4238739 -0.0372467 C131.73154492 -0.04879312 136.03874489 -0.04080187 140.34636497 -0.01766968 C141.92821152 -0.01237608 143.51009763 -0.01390751 145.09192848 -0.02272034 C147.24972948 -0.03363459 149.40601648 -0.01996495 151.5637207 0 C152.771605 0.0015081 153.97948929 0.0030162 155.22397614 0.00457001 C158.88064272 0.60650136 160.02958801 1.62943598 162.28186035 4.50793457 C163.46194898 7.12098795 163.34049291 8.26754107 162.65686035 11.07043457 C160.91653237 14.15556144 159.460361 14.96842312 156.28186035 16.50793457 C153.1661911 16.88545799 153.1661911 16.88545799 149.60205078 16.8888855 C148.61475644 16.89590546 148.61475644 16.89590546 147.60751677 16.90306723 C145.40956486 16.91500058 143.21223838 16.90556703 141.01428223 16.89611816 C139.43546689 16.90018462 137.8566544 16.90552692 136.27784729 16.91204834 C131.99481535 16.92571897 127.71200032 16.92042437 123.42896461 16.91091108 C118.94563845 16.90331318 114.4623308 16.91036046 109.97900391 16.91506958 C102.4502021 16.92052675 94.92148859 16.91333654 87.3927002 16.89904785 C78.68972494 16.8827214 69.98696053 16.88800994 61.28399038 16.90452707 C53.81039421 16.91814304 46.3368615 16.92006105 38.86325693 16.91221106 C34.4002121 16.90753515 29.93726636 16.90690743 25.47422791 16.91682053 C21.27823967 16.92548953 17.08252315 16.91946958 12.88656425 16.90213776 C11.34706002 16.89817255 9.80753291 16.89930757 8.2680378 16.90592575 C6.16560696 16.91413034 4.06404545 16.90383402 1.96166992 16.8888855 C0.78550362 16.88775442 -0.39066269 16.88662334 -1.6024704 16.88545799 C-5.34874151 16.43152499 -8.03035098 15.19572323 -10.71813965 12.50793457 C-11.31042914 5.28200272 -11.31042914 5.28200272 -9.11141205 2.40808868 C-5.93215285 -0.11610473 -4.03492687 0.0050378 0 0 Z " fill="#000000" transform="translate(69.7181396484375,257.4920654296875)"/>
<path d="M0 0 C1.25342697 -0.0112793 2.50685394 -0.02255859 3.79826355 -0.03417969 C5.18472521 -0.0264027 6.57118459 -0.01821004 7.9576416 -0.00964355 C9.41971026 -0.01506448 10.88177345 -0.02218697 12.34382629 -0.03088379 C16.31287584 -0.04912394 20.28150964 -0.04204698 24.25056648 -0.02936745 C28.40338388 -0.01924327 32.55616559 -0.0286315 36.70898438 -0.03491211 C43.68304844 -0.04219023 50.6569431 -0.03259656 57.63098145 -0.0135498 C65.69497997 0.00821935 73.75857397 0.00116809 81.82256269 -0.02085543 C88.74497679 -0.0390048 95.66726907 -0.04157004 102.58969927 -0.03110075 C106.72467715 -0.02486324 110.85946486 -0.02403716 114.99443054 -0.0372467 C118.88188305 -0.04879797 122.76881383 -0.0407933 126.65620995 -0.01766968 C128.08325013 -0.01237863 129.51033419 -0.01390321 130.93735695 -0.02272034 C132.88441022 -0.03364181 134.83155939 -0.01752064 136.77856445 0 C138.41340664 0.00226215 138.41340664 0.00226215 140.08127594 0.00457001 C143.55440075 0.62716404 144.7347049 1.77016833 146.88928223 4.50793457 C147.59810526 7.41578338 147.22900012 9.45047357 146.88928223 12.50793457 C145.07764956 15.18224946 144.01167146 15.46713816 140.88928223 16.50793457 C138.94720159 16.605367 137.00191906 16.6429197 135.05740356 16.64837646 C133.23197777 16.65694168 133.23197777 16.65694168 131.36967468 16.66567993 C130.01895152 16.66692526 128.66822824 16.66805036 127.31750488 16.66906738 C125.89662039 16.67369611 124.47573715 16.67872085 123.05485535 16.68411255 C119.19325065 16.69723237 115.33166334 16.70368056 111.47003984 16.70812321 C109.05767489 16.71105431 106.64531468 16.71515917 104.23295212 16.71962738 C96.68576728 16.73330055 89.1385933 16.74296837 81.59139693 16.74682927 C72.87805064 16.75131122 64.16486113 16.76886613 55.45156252 16.79782987 C48.71686914 16.81943992 41.98221989 16.82953317 35.24749219 16.83087039 C31.22481534 16.83191881 27.2022859 16.83783448 23.17964554 16.85569 C19.39573517 16.87215931 15.61208321 16.87433187 11.8281498 16.86555099 C10.44021602 16.86478003 9.05226842 16.86913122 7.66436958 16.87900925 C5.76799796 16.89171359 3.87152268 16.88406572 1.97512817 16.87542725 C0.91435373 16.87689381 -0.14642071 16.87836037 -1.23933983 16.87987137 C-4.83879176 16.41362532 -7.52644726 15.09220509 -10.11071777 12.50793457 C-10.70433308 5.26582788 -10.70433308 5.26582788 -8.46602631 2.40808868 C-5.45255335 -0.02304208 -3.842511 0.00531694 0 0 Z " fill="#000000" transform="translate(10.1107177734375,352.4920654296875)"/>
</svg>
